<svg width="286" height="160" viewBox="0 0 286 160" fill="none" xmlns="http://www.w3.org/2000/svg">
<g clip-path="url(#clip0_6_544)">
<mask id="mask0_6_544" style="mask-type:alpha" maskUnits="userSpaceOnUse" x="0" y="17" width="285" height="125">
<rect y="17.0515" width="284.934" height="124.056" fill="url(#paint0_linear_6_544)"/>
</mask>
<g mask="url(#mask0_6_544)">
<path d="M249.222 33.3445L233.117 27.9646L166.791 28.1722L155.31 24.0477L145.595 28.0833L104.084 27.9696L87.635 20.4274H63.7184L60.0189 27.9671H39.174L0 90.351L43.6074 139.573H241.42L285.028 90.351L249.219 33.3421L249.222 33.3445ZM240.414 137.342H44.6132L2.78261 90.1237L40.4121 30.1986H61.4152L65.1121 22.6589H87.1482L103.592 30.1986L146.038 30.3148L155.367 26.4374L166.403 30.4038L232.756 30.1962L247.754 35.2054L282.245 90.1187L240.414 137.337V137.342Z" fill="url(#paint1_linear_6_544)"/>
</g>
<path d="M282.247 90.1235L240.414 137.339H44.6132L2.78255 90.1235L40.4121 30.1984H61.4151L65.1121 22.6587H87.1481L103.594 30.1984L146.038 30.3171L155.367 26.4397L166.403 30.406L232.756 30.1984L247.754 35.2101L282.247 90.1235Z" fill="url(#paint2_linear_6_544)"/>
<path d="M282.242 90.1234L247.756 35.2101L232.753 30.2009L166.405 30.4035L155.369 26.4372L146.035 30.3146L103.591 30.2009L87.1475 22.6611H65.114L61.417 30.2009H40.4164L2.78445 90.1234H27.9491L46.9158 104.222H77.6333L82.2323 90.1234H102.158L106.737 70.1756H111.282L117.42 67.5017L116.133 81.0392L133.105 90.1234H282.242Z" fill="#4A357D"/>
<path d="M16.1099 82.7567H37.5479L41.2325 75.689H31.7257L38.4524 63.8962L49.4741 59.883L52.9561 53.2106L42.4657 56.8606L48.0482 47.0721L44.759 42.1024H50.8852H58.7487L61.1136 37.5677H44.4896L16.1099 82.7567Z" fill="white"/>
<path d="M69.7086 30.0253L57.2634 55.4197L72.3528 64.3755L78.2739 67.4348L69.3132 72.3007L62.9893 88.7814H52.8399L63.6936 63.6909L55.5855 58.8424L40.2564 90.1159L49.3481 96.8549H72.2885L83.6538 62.0006L68.122 53.4526L76.4822 34.1275H83.9553L89.0411 36.2651L81.8473 39.6236L76.9369 52.427L85.307 56.9247L92.958 33.4603L85.5294 30.0253H69.7086Z" fill="white"/>
<path d="M97.6854 37.5673L84.7065 82.7563H96.2892L100.871 62.8085H109.748L120.774 58.0069L122.818 41.415L114.307 37.5673H97.6829H97.6854ZM112.57 47.2026L110.79 57.0505H102.195L105.628 42.0995H113.491L119.294 44.4595L112.57 47.2001V47.2026Z" fill="white"/>
<path d="M127.667 37.5673L123.93 76.8575L134.952 82.7563H156.39L153.54 41.415L144.293 37.5673H127.669H127.667ZM144.449 51.4704L144.726 75.6861H135.219L136.482 42.0995H144.345L150.387 44.4595L144.451 51.4704H144.449Z" fill="white"/>
<path d="M159.879 41.4323L164.364 82.7563H175.947L172.633 62.8085H181.51L185.8 82.7563H197.385L192.188 63.6907L185.37 60.8043L190.639 58.0069L185.066 37.5673H168.442L159.879 41.4323V41.4323ZM180.274 57.0505H171.679L170.053 47.2545L163.346 44.462L169.196 42.102H177.059L180.274 57.053V57.0505Z" fill="white"/>
<path d="M189.363 42.102H197.106L210.922 82.7563H222.508L208.303 47.0123L200.19 42.0476H213.95L211.958 37.5673H188.041L189.363 42.102Z" fill="white"/>
<path d="M252.696 56.9245L242.922 41.3631L231.555 37.5673H214.931L223.214 55.4195L246.847 64.3752L253.302 75.6886H243.792L237.538 63.6907L224.801 58.8421L233.159 76.8575L247.479 82.7563H268.917L255.882 62.0004L232.197 53.4524L228.878 47.0865L220.157 42.102H234.142L240.031 52.4268L252.696 56.9245Z" fill="white"/>
<path d="M155.756 32.1526C154.543 33.3362 153.169 34.4334 151.659 35.4292C153.31 36.4348 154.879 37.5814 156.344 38.849C157.587 37.5814 158.956 36.4348 160.428 35.4292C158.743 34.4334 157.177 33.3362 155.756 32.1526Z" fill="#E2D45C"/>
<path d="M29.1733 77.1715L36.1299 64.9734C33.5499 65.2675 30.9922 65.569 28.4567 65.8829L18.7917 81.2737H36.6488L38.7864 77.1715H29.1733V77.1715Z" fill="url(#paint3_linear_6_544)"/>
<path d="M79.0503 61.16C76.2875 61.3404 73.5419 61.5332 70.8137 61.7383L73.0724 63.0777L80.4935 66.9106L81.8626 62.707L79.0503 61.16V61.16ZM70.4998 73.3408L64.0104 90.2638H50.5841L61.8184 64.296L59.1148 62.6798C57.8002 62.7935 56.4879 62.9097 55.1831 63.0308L42.1325 89.6583L49.8378 95.3718H71.2116L80.0932 68.1339L70.4998 73.3408V73.3408Z" fill="url(#paint4_linear_6_544)"/>
<path d="M113.71 59.4673L109.442 61.3257H99.6931L95.1115 81.2735H86.6771L92.6847 60.3545C99.5992 59.9912 106.61 59.6946 113.71 59.4673Z" fill="url(#paint5_linear_6_544)"/>
<path d="M154.801 81.2737H135.325L125.499 76.0174L127.108 59.1166C129.518 59.0672 131.935 59.0276 134.361 58.9955L133.679 77.1714H146.226L146.018 58.8991C147.128 58.8966 148.24 58.8942 149.354 58.8942C150.659 58.8942 151.961 58.8966 153.259 58.9016L154.801 81.2737V81.2737Z" fill="url(#paint6_linear_6_544)"/>
<path d="M195.445 81.2735H186.999L182.709 61.3257H170.884L174.198 81.2735H165.694L163.275 58.9805C170.511 59.0694 177.67 59.2301 184.743 59.4574L181.923 60.955L190.948 64.7755L195.445 81.2735V81.2735Z" fill="url(#paint7_linear_6_544)"/>
<path d="M212.144 60.693C209.727 60.5521 207.298 60.4187 204.857 60.2951L211.986 81.2734H220.324L212.144 60.693Z" fill="url(#paint8_linear_6_544)"/>
<path d="M255.517 64.2049C253.038 63.9455 250.542 63.6934 248.027 63.4512L255.855 77.1715H242.894L236.483 64.8771L228.321 61.7683C228.138 61.7535 227.958 61.7411 227.775 61.7288L234.262 75.7085L247.772 81.2738H266.237L255.517 64.2049V64.2049Z" fill="url(#paint9_linear_6_544)"/>
<path fill-rule="evenodd" clip-rule="evenodd" d="M118.12 116.01V112.96L109.696 116.094H109.679V119.222H109.696L118.12 122.355V119.301L113.803 117.65L118.12 116.01V116.01Z" fill="#996DFF"/>
<path fill-rule="evenodd" clip-rule="evenodd" d="M166.918 122.198V119.148L171.233 117.507L166.918 115.867V112.817L175.33 115.948H175.35V119.079H175.33L166.918 122.195V122.198ZM163.305 108.51L158.358 124.39H161.296L166.243 108.51H163.305Z" fill="#996DFF"/>
<path fill-rule="evenodd" clip-rule="evenodd" d="M130.5 112.384C131.335 113.304 131.775 114.515 131.723 115.755V122.519H128.784V116.376C128.819 115.691 128.599 115.019 128.172 114.485C127.764 114.011 127.161 113.749 126.536 113.776C124.697 113.776 123.775 115.051 123.775 117.604V122.521H120.837V111.416H123.775V112.419C124.707 111.512 125.972 111.03 127.272 111.085C128.483 111.033 129.659 111.507 130.497 112.384H130.5Z" fill="white"/>
<path fill-rule="evenodd" clip-rule="evenodd" d="M135.462 106.797V122.677H138.4V106.797H135.462Z" fill="white"/>
<path fill-rule="evenodd" clip-rule="evenodd" d="M155.001 122.096H152.55L150.148 115.555L147.723 122.096H145.277L141.16 110.971H144.298L146.611 117.623L148.996 110.971H151.287L153.672 117.646L155.985 110.971H159.123L155.001 122.096V122.096Z" fill="white"/>
<path d="M11.9785 25.9284C15.3047 17.8944 22.0216 11.5631 31.9362 7.11236C41.4356 2.847 53.473 0.474612 67.7098 0.0643868C96.8951 -0.778305 132.128 6.68977 166.91 21.0996C169.411 22.135 171.89 23.1976 174.341 24.2875L170.874 24.2973C169.386 23.6523 167.886 23.0172 166.374 22.392C95.1109 -7.12444 26.4278 -5.2982 13.2709 26.4646C9.46027 35.6626 10.7181 46.3754 16.1598 57.6739C29.502 85.3962 68.0212 116.635 118.652 137.606C123.55 139.635 128.453 141.523 133.348 143.27C163.05 153.877 192.386 159.252 217.276 158.532C231.33 158.127 243.185 155.797 252.516 151.608C262.097 147.308 268.569 141.226 271.755 133.533C274.629 126.592 274.619 118.788 272.101 110.519L273.176 109.305C276.127 118.419 276.087 126.74 273.05 134.07C269.721 142.104 263.007 148.435 253.09 152.886C243.59 157.151 231.555 159.523 217.318 159.934C215.831 159.976 214.328 159.998 212.811 159.998C187.72 159.998 158.577 154.148 129.256 143.27C125.542 141.894 121.827 140.436 118.116 138.898C83.333 124.491 53.1394 104.862 33.0977 83.6268C25.2169 75.2765 19.2464 67.0374 15.2899 59.0578C14.336 57.1376 13.5007 55.2348 12.7841 53.3492C8.92154 43.1899 8.64971 33.9648 11.9785 25.9284V25.9284Z" fill="url(#paint10_linear_6_544)"/>
<path d="M11.9785 25.9284C15.3047 17.8944 22.0216 11.5631 31.9362 7.11236C41.4356 2.847 53.473 0.474612 67.7098 0.0643868C96.8951 -0.778305 132.128 6.68977 166.91 21.0996C169.411 22.135 171.89 23.1976 174.341 24.2875L170.874 24.2973C169.386 23.6523 167.886 23.0172 166.374 22.392C95.1109 -7.12444 26.4278 -5.2982 13.2709 26.4646C9.46027 35.6626 10.7181 46.3754 16.1598 57.6739C29.502 85.3962 68.0212 116.635 118.652 137.606C123.55 139.635 128.453 141.523 133.348 143.27C163.05 153.877 192.386 159.252 217.276 158.532C231.33 158.127 243.185 155.797 252.516 151.608C262.097 147.308 268.569 141.226 271.755 133.533C274.629 126.592 274.619 118.788 272.101 110.519L273.176 109.305C276.127 118.419 276.087 126.74 273.05 134.07C269.721 142.104 263.007 148.435 253.09 152.886C243.59 157.151 231.555 159.523 217.318 159.934C215.831 159.976 214.328 159.998 212.811 159.998C187.72 159.998 158.577 154.148 129.256 143.27C125.542 141.894 121.827 140.436 118.116 138.898C83.333 124.491 53.1394 104.862 33.0977 83.6268C25.2169 75.2765 19.2464 67.0374 15.2899 59.0578C14.336 57.1376 13.5007 55.2348 12.7841 53.3492C8.92154 43.1899 8.64971 33.9648 11.9785 25.9284V25.9284Z" fill="url(#paint11_radial_6_544)"/>
<path d="M11.9785 25.9284C15.3047 17.8944 22.0216 11.5631 31.9362 7.11236C41.4356 2.847 53.473 0.474612 67.7098 0.0643868C96.8951 -0.778305 132.128 6.68977 166.91 21.0996C169.411 22.135 171.89 23.1976 174.341 24.2875L170.874 24.2973C169.386 23.6523 167.886 23.0172 166.374 22.392C95.1109 -7.12444 26.4278 -5.2982 13.2709 26.4646C9.46027 35.6626 10.7181 46.3754 16.1598 57.6739C29.502 85.3962 68.0212 116.635 118.652 137.606C123.55 139.635 128.453 141.523 133.348 143.27C163.05 153.877 192.386 159.252 217.276 158.532C231.33 158.127 243.185 155.797 252.516 151.608C262.097 147.308 268.569 141.226 271.755 133.533C274.629 126.592 274.619 118.788 272.101 110.519L273.176 109.305C276.127 118.419 276.087 126.74 273.05 134.07C269.721 142.104 263.007 148.435 253.09 152.886C243.59 157.151 231.555 159.523 217.318 159.934C215.831 159.976 214.328 159.998 212.811 159.998C187.72 159.998 158.577 154.148 129.256 143.27C125.542 141.894 121.827 140.436 118.116 138.898C83.333 124.491 53.1394 104.862 33.0977 83.6268C25.2169 75.2765 19.2464 67.0374 15.2899 59.0578C14.336 57.1376 13.5007 55.2348 12.7841 53.3492C8.92154 43.1899 8.64971 33.9648 11.9785 25.9284V25.9284Z" fill="url(#paint12_radial_6_544)"/>
<path d="M11.9785 25.9284C15.3047 17.8944 22.0216 11.5631 31.9362 7.11236C41.4356 2.847 53.473 0.474612 67.7098 0.0643868C96.8951 -0.778305 132.128 6.68977 166.91 21.0996C169.411 22.135 171.89 23.1976 174.341 24.2875L170.874 24.2973C169.386 23.6523 167.886 23.0172 166.374 22.392C95.1109 -7.12444 26.4278 -5.2982 13.2709 26.4646C9.46027 35.6626 10.7181 46.3754 16.1598 57.6739C29.502 85.3962 68.0212 116.635 118.652 137.606C123.55 139.635 128.453 141.523 133.348 143.27C163.05 153.877 192.386 159.252 217.276 158.532C231.33 158.127 243.185 155.797 252.516 151.608C262.097 147.308 268.569 141.226 271.755 133.533C274.629 126.592 274.619 118.788 272.101 110.519L273.176 109.305C276.127 118.419 276.087 126.74 273.05 134.07C269.721 142.104 263.007 148.435 253.09 152.886C243.59 157.151 231.555 159.523 217.318 159.934C215.831 159.976 214.328 159.998 212.811 159.998C187.72 159.998 158.577 154.148 129.256 143.27C125.542 141.894 121.827 140.436 118.116 138.898C83.333 124.491 53.1394 104.862 33.0977 83.6268C25.2169 75.2765 19.2464 67.0374 15.2899 59.0578C14.336 57.1376 13.5007 55.2348 12.7841 53.3492C8.92154 43.1899 8.64971 33.9648 11.9785 25.9284V25.9284Z" fill="url(#paint13_radial_6_544)"/>
<path d="M273.05 25.9284C269.723 17.8944 263.007 11.5631 253.092 7.11236C243.592 2.847 231.555 0.474612 217.318 0.0643868C188.133 -0.778305 152.901 6.68977 118.118 21.0996C115.617 22.135 113.138 23.1976 110.687 24.2875L114.154 24.2973C115.642 23.6523 117.142 23.0172 118.654 22.392C189.917 -7.12444 258.6 -5.2982 271.757 26.4646C275.568 35.6626 274.31 46.3754 268.868 57.6739C255.526 85.3962 217.007 116.635 166.376 137.606C161.478 139.635 156.575 141.523 151.68 143.27C121.978 153.877 92.6419 159.252 67.7516 158.532C53.6977 158.127 41.8432 155.797 32.5118 151.608C22.9308 147.308 16.4586 141.226 13.2732 133.533C10.3992 126.592 10.409 118.788 12.9272 110.519L11.8522 109.305C8.90159 118.419 8.94113 126.74 11.9783 134.07C15.307 142.104 22.0214 148.435 31.9385 152.886C41.4379 157.151 53.4728 159.523 67.7096 159.934C69.1973 159.976 70.6998 159.998 72.2171 159.998C97.3076 159.998 126.451 154.148 155.772 143.27C159.486 141.894 163.201 140.436 166.912 138.898C201.695 124.491 231.889 104.862 251.93 83.6268C259.811 75.2765 265.782 67.0374 269.738 59.0578C270.692 57.1376 271.527 55.2348 272.244 53.3492C276.107 43.1899 276.378 33.9648 273.05 25.9284V25.9284Z" fill="url(#paint14_linear_6_544)"/>
<path d="M273.05 25.9284C269.723 17.8944 263.007 11.5631 253.092 7.11236C243.592 2.847 231.555 0.474612 217.318 0.0643868C188.133 -0.778305 152.901 6.68977 118.118 21.0996C115.617 22.135 113.138 23.1976 110.687 24.2875L114.154 24.2973C115.642 23.6523 117.142 23.0172 118.654 22.392C189.917 -7.12444 258.6 -5.2982 271.757 26.4646C275.568 35.6626 274.31 46.3754 268.868 57.6739C255.526 85.3962 217.007 116.635 166.376 137.606C161.478 139.635 156.575 141.523 151.68 143.27C121.978 153.877 92.6419 159.252 67.7516 158.532C53.6977 158.127 41.8432 155.797 32.5118 151.608C22.9308 147.308 16.4586 141.226 13.2732 133.533C10.3992 126.592 10.409 118.788 12.9272 110.519L11.8522 109.305C8.90159 118.419 8.94113 126.74 11.9783 134.07C15.307 142.104 22.0214 148.435 31.9385 152.886C41.4379 157.151 53.4728 159.523 67.7096 159.934C69.1973 159.976 70.6998 159.998 72.2171 159.998C97.3076 159.998 126.451 154.148 155.772 143.27C159.486 141.894 163.201 140.436 166.912 138.898C201.695 124.491 231.889 104.862 251.93 83.6268C259.811 75.2765 265.782 67.0374 269.738 59.0578C270.692 57.1376 271.527 55.2348 272.244 53.3492C276.107 43.1899 276.378 33.9648 273.05 25.9284V25.9284Z" fill="url(#paint15_radial_6_544)"/>
<path d="M273.05 25.9284C269.723 17.8944 263.007 11.5631 253.092 7.11236C243.592 2.847 231.555 0.474612 217.318 0.0643868C188.133 -0.778305 152.901 6.68977 118.118 21.0996C115.617 22.135 113.138 23.1976 110.687 24.2875L114.154 24.2973C115.642 23.6523 117.142 23.0172 118.654 22.392C189.917 -7.12444 258.6 -5.2982 271.757 26.4646C275.568 35.6626 274.31 46.3754 268.868 57.6739C255.526 85.3962 217.007 116.635 166.376 137.606C161.478 139.635 156.575 141.523 151.68 143.27C121.978 153.877 92.6419 159.252 67.7516 158.532C53.6977 158.127 41.8432 155.797 32.5118 151.608C22.9308 147.308 16.4586 141.226 13.2732 133.533C10.3992 126.592 10.409 118.788 12.9272 110.519L11.8522 109.305C8.90159 118.419 8.94113 126.74 11.9783 134.07C15.307 142.104 22.0214 148.435 31.9385 152.886C41.4379 157.151 53.4728 159.523 67.7096 159.934C69.1973 159.976 70.6998 159.998 72.2171 159.998C97.3076 159.998 126.451 154.148 155.772 143.27C159.486 141.894 163.201 140.436 166.912 138.898C201.695 124.491 231.889 104.862 251.93 83.6268C259.811 75.2765 265.782 67.0374 269.738 59.0578C270.692 57.1376 271.527 55.2348 272.244 53.3492C276.107 43.1899 276.378 33.9648 273.05 25.9284V25.9284Z" fill="url(#paint16_radial_6_544)"/>
</g>
<defs>
<linearGradient id="paint0_linear_6_544" x1="142.467" y1="74.7549" x2="142.467" y2="135.547" gradientUnits="userSpaceOnUse">
<stop stop-color="#D9D9D9"/>
<stop offset="1" stop-color="#D9D9D9" stop-opacity="0"/>
</linearGradient>
<linearGradient id="paint1_linear_6_544" x1="0" y1="79.999" x2="285.03" y2="79.999" gradientUnits="userSpaceOnUse">
<stop stop-color="#996DFF"/>
<stop offset="0.5" stop-color="#35E8B3"/>
<stop offset="1" stop-color="#E2D45C"/>
</linearGradient>
<linearGradient id="paint2_linear_6_544" x1="142.514" y1="91.9102" x2="142.514" y2="136.165" gradientUnits="userSpaceOnUse">
<stop stop-color="#28203E"/>
<stop offset="1" stop-color="#121214" stop-opacity="0"/>
</linearGradient>
<linearGradient id="paint3_linear_6_544" x1="28.7903" y1="61.0145" x2="28.7903" y2="78.454" gradientUnits="userSpaceOnUse">
<stop stop-color="#A9A9AD"/>
<stop offset="1" stop-color="#A9A9AD" stop-opacity="0"/>
</linearGradient>
<linearGradient id="paint4_linear_6_544" x1="61.9988" y1="61.0142" x2="61.9988" y2="78.4537" gradientUnits="userSpaceOnUse">
<stop stop-color="#A9A9AD"/>
<stop offset="1" stop-color="#A9A9AD" stop-opacity="0"/>
</linearGradient>
<linearGradient id="paint5_linear_6_544" x1="100.195" y1="61.0143" x2="100.195" y2="78.4538" gradientUnits="userSpaceOnUse">
<stop stop-color="#A9A9AD"/>
<stop offset="1" stop-color="#A9A9AD" stop-opacity="0"/>
</linearGradient>
<linearGradient id="paint6_linear_6_544" x1="140.151" y1="61.0145" x2="140.151" y2="78.454" gradientUnits="userSpaceOnUse">
<stop stop-color="#A9A9AD"/>
<stop offset="1" stop-color="#A9A9AD" stop-opacity="0"/>
</linearGradient>
<linearGradient id="paint7_linear_6_544" x1="179.36" y1="61.0143" x2="179.36" y2="78.4538" gradientUnits="userSpaceOnUse">
<stop stop-color="#A9A9AD"/>
<stop offset="1" stop-color="#A9A9AD" stop-opacity="0"/>
</linearGradient>
<linearGradient id="paint8_linear_6_544" x1="212.592" y1="61.0142" x2="212.592" y2="78.4538" gradientUnits="userSpaceOnUse">
<stop stop-color="#A9A9AD"/>
<stop offset="1" stop-color="#A9A9AD" stop-opacity="0"/>
</linearGradient>
<linearGradient id="paint9_linear_6_544" x1="247.006" y1="61.0146" x2="247.006" y2="78.4541" gradientUnits="userSpaceOnUse">
<stop stop-color="#A9A9AD"/>
<stop offset="1" stop-color="#A9A9AD" stop-opacity="0"/>
</linearGradient>
<linearGradient id="paint10_linear_6_544" x1="258.615" y1="114.542" x2="66.1059" y2="115.53" gradientUnits="userSpaceOnUse">
<stop stop-color="#996DFF"/>
<stop offset="0.5" stop-color="#35E8B3"/>
<stop offset="1" stop-color="#E2D45C"/>
</linearGradient>
<radialGradient id="paint11_radial_6_544" cx="0" cy="0" r="1" gradientUnits="userSpaceOnUse" gradientTransform="translate(140.756 146.21) rotate(15.7611) scale(129.409 214.894)">
<stop stop-color="#171226"/>
<stop offset="1" stop-color="#171226" stop-opacity="0"/>
</radialGradient>
<radialGradient id="paint12_radial_6_544" cx="0" cy="0" r="1" gradientUnits="userSpaceOnUse" gradientTransform="translate(173.937 24.9998) rotate(-157.036) scale(29.126 48.3661)">
<stop stop-color="#261945"/>
<stop offset="1" stop-color="#261945" stop-opacity="0"/>
</radialGradient>
<radialGradient id="paint13_radial_6_544" cx="0" cy="0" r="1" gradientUnits="userSpaceOnUse" gradientTransform="translate(273.481 107.271) rotate(76.7293) scale(33.002 54.8026)">
<stop stop-color="#191326"/>
<stop offset="1" stop-color="#191326" stop-opacity="0"/>
</radialGradient>
<linearGradient id="paint14_linear_6_544" x1="149.846" y1="17.7271" x2="192.876" y2="126.817" gradientUnits="userSpaceOnUse">
<stop stop-color="#996DFF"/>
<stop offset="0.5" stop-color="#35E8B3"/>
<stop offset="1" stop-color="#E2D45C"/>
</linearGradient>
<radialGradient id="paint15_radial_6_544" cx="0" cy="0" r="1" gradientUnits="userSpaceOnUse" gradientTransform="translate(108.029 27.424) rotate(-19.3523) scale(65.8404 109.333)">
<stop stop-color="#171225"/>
<stop offset="1" stop-color="#171225" stop-opacity="0"/>
</radialGradient>
<radialGradient id="paint16_radial_6_544" cx="0" cy="0" r="1" gradientUnits="userSpaceOnUse" gradientTransform="translate(11.9696 108.786) rotate(67.4706) scale(44.2885 73.5446)">
<stop stop-color="#191327"/>
<stop offset="1" stop-color="#191327" stop-opacity="0"/>
</radialGradient>
<clipPath id="clip0_6_544">
<rect width="285.03" height="159.998" fill="white"/>
</clipPath>
</defs>
</svg>
